<svg width="1600" height="900" viewBox="0 0 1600 900" xmlns="http://www.w3.org/2000/svg">
  <defs>
    <linearGradient id="sky" x1="0" x2="1" y1="0" y2="1">
      <stop offset="0" stop-color="#10202B"/>
      <stop offset="0.45" stop-color="#17241E"/>
      <stop offset="1" stop-color="#080B0F"/>
    </linearGradient>
    <radialGradient id="glow" cx="0.52" cy="0.40" r="0.55">
      <stop offset="0" stop-color="#2A5F4C" stop-opacity="0.75"/>
      <stop offset="0.55" stop-color="#173126" stop-opacity="0.3"/>
      <stop offset="1" stop-color="#05070B" stop-opacity="0"/>
    </radialGradient>
    <linearGradient id="ground" x1="0" x2="0" y1="0" y2="1">
      <stop offset="0" stop-color="#2F382F"/>
      <stop offset="1" stop-color="#0B0F12"/>
    </linearGradient>
    <filter id="blur"><feGaussianBlur stdDeviation="2.6"/></filter>
  </defs>
  <rect width="1600" height="900" fill="url(#sky)"/>
  <rect width="1600" height="900" fill="url(#glow)"/>
  <path d="M0 565 C185 515, 318 520, 460 555 C610 592, 745 518, 914 545 C1084 572, 1225 515, 1600 565 L1600 900 L0 900Z" fill="url(#ground)"/>
  <path d="M0 610 C220 555, 355 620, 520 610 C700 598, 870 588, 1030 615 C1210 645, 1365 595, 1600 628 L1600 900 L0 900Z" fill="#101613" opacity="0.86"/>
  <g opacity="0.25" stroke="#CDD4CC" stroke-width="1">
    <path d="M0 695 L1600 560"/>
    <path d="M0 750 L1600 665"/>
    <path d="M0 820 L1600 790"/>
    <path d="M155 900 L820 520"/>
    <path d="M485 900 L1030 520"/>
    <path d="M880 900 L1220 520"/>
  </g>
  <g opacity="0.36" fill="#090B0D" filter="url(#blur)">
    <rect x="170" y="270" width="20" height="355" rx="8" transform="rotate(-8 170 270)"/>
    <rect x="1335" y="255" width="24" height="390" rx="10" transform="rotate(9 1335 255)"/>
    <rect x="1250" y="310" width="16" height="260" rx="8" transform="rotate(6 1250 310)"/>
    <rect x="315" y="350" width="18" height="260" rx="9" transform="rotate(-6 315 350)"/>
  </g>
  <g transform="translate(825 455)" opacity="0.94">
    <path d="M56 108 C66 76, 63 42, 40 30 C18 18, -4 26, -13 51 C-23 79,-12 111,8 128 C24 142,47 138,56 108Z" fill="#0C0F12"/>
    <path d="M1 43 C16 33,36 33,51 43 L48 60 C33 53,20 53,5 60Z" fill="#181D20"/>
    <rect x="14" y="49" width="34" height="13" rx="5" fill="#0B0F12" stroke="#58FF1F" stroke-width="2"/>
    <path d="M17 130 L-4 276 H78 L60 128Z" fill="#171B1D"/>
    <path d="M4 150 L-48 254" stroke="#101315" stroke-width="26" stroke-linecap="round"/>
    <path d="M56 151 L122 250" stroke="#101315" stroke-width="25" stroke-linecap="round"/>
  </g>
  <g transform="translate(640 510) scale(.85)" opacity="0.78">
    <path d="M43 87 C55 55,50 30,31 22 C7 12,-13 25,-18 50 C-24 81,-8 105,17 115 C29 120,39 107,43 87Z" fill="#0B0F12"/>
    <rect x="7" y="37" width="34" height="12" rx="5" fill="#090B0D" stroke="#24D7FF" stroke-width="2"/>
    <path d="M9 118 L-8 252 H72 L51 114Z" fill="#121719"/>
    <path d="M2 136 L-63 220" stroke="#0F1315" stroke-width="25" stroke-linecap="round"/>
    <path d="M53 134 L109 208" stroke="#0F1315" stroke-width="24" stroke-linecap="round"/>
  </g>
  <g stroke="#58FF1F" stroke-width="3" fill="none" opacity="0.86">
    <path d="M875 515 C972 445,1040 395,1148 330"/>
    <path d="M668 563 C590 510,543 465,480 400"/>
    <circle cx="1148" cy="330" r="8" fill="#58FF1F"/>
    <circle cx="480" cy="400" r="8" fill="#24D7FF" stroke="#24D7FF"/>
    <path d="M1131 302 H1260 M1131 302 V274 M1260 302 V274" opacity="0.5"/>
    <path d="M451 371 H560 M451 371 V345 M560 371 V345" opacity="0.5"/>
  </g>
  <g font-family="Inter, Arial, sans-serif" font-weight="700" letter-spacing="1" font-size="22" opacity="0.9">
    <text x="1175" y="323" fill="#E7ECE9">TEAM 2 · 64m</text>
    <text x="508" y="393" fill="#E7ECE9">ZONE B</text>
  </g>
  <rect width="1600" height="900" fill="url(#fade)" opacity="0"/>
  <rect x="0" y="0" width="1600" height="900" fill="url(#leftShade)" opacity="0"/>
  <defs>
    <linearGradient id="leftShade" x1="0" x2="1"><stop offset="0" stop-color="#030507" stop-opacity="0.78"/><stop offset="0.62" stop-color="#030507" stop-opacity="0.1"/><stop offset="1" stop-color="#030507" stop-opacity="0.58"/></linearGradient>
  </defs>
</svg>
