<svg width="1600" height="640" viewBox="0 0 1600 640" xmlns="http://www.w3.org/2000/svg">
  <defs>
    <linearGradient id="bg" x1="0" x2="1" y1="0" y2="1"><stop stop-color="#223326"/><stop offset=".55" stop-color="#111713"/><stop offset="1" stop-color="#06090C"/></linearGradient>
    <filter id="noise"><feTurbulence type="fractalNoise" baseFrequency="0.018" numOctaves="4"/><feColorMatrix type="saturate" values="0"/><feComponentTransfer><feFuncA type="table" tableValues=".13 .26"/></feComponentTransfer></filter>
  </defs>
  <rect width="1600" height="640" fill="url(#bg)"/>
  <rect width="1600" height="640" filter="url(#noise)" opacity=".75"/>
  <g stroke="#C8D2C8" stroke-opacity=".10" fill="none">
    <path d="M-50 530 C240 390,450 570,710 410 C980 245,1185 460,1660 230" stroke-width="2"/>
    <path d="M-30 445 C210 362,390 470,620 340 C810 230,1085 390,1620 150"/>
    <path d="M-40 285 C240 250,390 350,660 220 C900 95,1220 255,1610 60"/>
  </g>
  <path d="M0 105 L1600 105" stroke="#58FF1F" stroke-width="5" opacity=".9"/>
  <g transform="translate(954 230)" opacity=".95">
    <rect x="16" y="16" width="128" height="128" rx="32" stroke="#58FF1F" stroke-width="9" fill="none"/>
    <path d="M50 112L80 52L110 112H96L90 99H70L64 112H50Z" fill="#58FF1F"/>
  </g>
  <g stroke="#F7F3EA" stroke-opacity=".45" stroke-width="2">
    <path d="M397 210H440M397 210V253"/><path d="M620 210H577M620 210V253"/><path d="M397 430H440M397 430V387"/><path d="M620 430H577M620 430V387"/>
  </g>
</svg>
