<svg width="1400" height="820" viewBox="0 0 1400 820" xmlns="http://www.w3.org/2000/svg">
  <defs>
    <linearGradient id="bg" x1="0" x2="1" y1="0" y2="1"><stop offset="0" stop-color="#203026"/><stop offset="0.45" stop-color="#16211C"/><stop offset="1" stop-color="#090C10"/></linearGradient>
    <linearGradient id="glass" x1="0" x2="1"><stop stop-color="#EAF2F3" stop-opacity="0.09"/><stop offset="1" stop-color="#24D7FF" stop-opacity="0.05"/></linearGradient>
  </defs>
  <rect width="1400" height="820" rx="32" fill="#070B0F"/>
  <rect x="26" y="26" width="1348" height="768" rx="24" fill="url(#bg)"/>
  <path d="M26 520 C260 435 450 500 620 465 C850 420 990 500 1374 438 L1374 794 L26 794Z" fill="#263628" opacity=".9"/>
  <path d="M26 608 C230 555 388 634 558 597 C760 553 963 624 1374 579 L1374 794 L26 794Z" fill="#111812" opacity=".88"/>
  <g opacity=".18" stroke="#DCE3DE"><path d="M72 626H1328"/><path d="M96 696H1302"/><path d="M152 770H1248"/><path d="M380 794L682 470"/><path d="M690 794L762 452"/><path d="M1002 794L840 470"/></g>
  <rect x="80" y="78" width="1240" height="660" rx="92" fill="none" stroke="#F7F3EA" stroke-opacity=".18" stroke-width="8"/>
  <rect x="88" y="86" width="1224" height="644" rx="84" fill="url(#glass)"/>
  <g stroke="#58FF1F" stroke-width="3" fill="none" opacity=".88">
    <path d="M700 665 C724 610 742 540 748 461 C750 430 760 396 788 375"/>
    <path d="M773 380 L788 375 L785 391"/>
    <circle cx="748" cy="461" r="10" fill="#58FF1F"/>
    <circle cx="1002" cy="315" r="9" fill="#58FF1F"/>
    <circle cx="418" cy="382" r="9" stroke="#24D7FF" fill="#24D7FF"/>
    <path d="M1002 315L1108 253"/><path d="M418 382L310 336"/>
  </g>
  <g font-family="Inter, Arial, sans-serif" letter-spacing=".8" fill="#F7F3EA">
    <text x="810" y="365" font-size="24" font-weight="800">COMMAND WAYPOINT</text>
    <text x="810" y="397" font-size="18" opacity=".72">Route updated · 112m</text>
    <text x="1128" y="255" font-size="22" font-weight="800">TEAM 3</text>
    <text x="1128" y="284" font-size="16" opacity=".72">North flank · 86m</text>
    <text x="140" y="336" font-size="22" font-weight="800">ZONE B</text>
    <text x="140" y="365" font-size="16" opacity=".72">Search segment · active</text>
  </g>
  <g transform="translate(92 92)" font-family="Inter, Arial, sans-serif">
    <rect width="342" height="112" rx="18" fill="#071015" opacity=".85" stroke="#24D7FF" stroke-opacity=".38"/>
    <text x="24" y="42" fill="#58FF1F" font-size="18" font-weight="800" letter-spacing="1.4">A² RESPONDER VIEW</text>
    <text x="24" y="77" fill="#F7F3EA" font-size="20" font-weight="700">Search Zone B · Team 1</text>
    <text x="24" y="99" fill="#B7C0BE" font-size="14">Shared markers · nav cues · command updates</text>
  </g>
  <g transform="translate(1010 610)" font-family="Inter, Arial, sans-serif">
    <rect width="276" height="88" rx="16" fill="#071015" opacity=".82" stroke="#58FF1F" stroke-opacity=".35"/>
    <text x="20" y="35" fill="#F7F3EA" font-size="18" font-weight="800">DRONE CUE</text>
    <text x="20" y="62" fill="#B7C0BE" font-size="15">Movement candidate · review</text>
  </g>
  <g stroke="#F7F3EA" opacity=".28" stroke-width="2">
    <path d="M109 149H151M109 149V191"/><path d="M1290 149H1248M1290 149V191"/><path d="M109 706H151M109 706V664"/><path d="M1290 706H1248M1290 706V664"/>
  </g>
</svg>
